<mxfile host="app.diagrams.net" modified="2021-12-23T18:59:27.108Z" agent="5.0 (Windows NT 10.0; Win64; x64) AppleWebKit/537.36 (KHTML, like Gecko) Chrome/96.0.4664.110 Safari/537.36" etag="I2lO6nqgmgngcuwBy-iP" version="16.0.3" type="github">
  <diagram id="ELvzcPUC6GenFyD9g-nM" name="Page-1">
    <mxGraphModel dx="2591" dy="717" grid="1" gridSize="10" guides="1" tooltips="1" connect="1" arrows="1" fold="1" page="1" pageScale="1" pageWidth="1169" pageHeight="827" math="0" shadow="0">
      <root>
        <mxCell id="0" />
        <mxCell id="1" parent="0" />
        <mxCell id="MNM0A-3LXQNNe9UuYe-N-13" value="" style="group" parent="1" vertex="1" connectable="0">
          <mxGeometry x="-700" y="70" width="355" height="440" as="geometry" />
        </mxCell>
        <mxCell id="MNM0A-3LXQNNe9UuYe-N-1" value="oc: varchar - nullable" style="shape=partialRectangle;connectable=0;fillColor=none;top=0;left=0;bottom=0;right=0;align=left;spacingLeft=6;overflow=hidden;perimeterSpacing=1;strokeWidth=1;sketch=0;strokeColor=default;" parent="MNM0A-3LXQNNe9UuYe-N-13" vertex="1">
          <mxGeometry x="30" y="150" width="310" height="30" as="geometry">
            <mxRectangle width="310" height="30" as="alternateBounds" />
          </mxGeometry>
        </mxCell>
        <mxCell id="MNM0A-3LXQNNe9UuYe-N-2" value="imagen: varchar - nullable" style="shape=partialRectangle;connectable=0;fillColor=none;top=0;left=0;bottom=0;right=0;align=left;spacingLeft=6;overflow=hidden;" parent="MNM0A-3LXQNNe9UuYe-N-13" vertex="1">
          <mxGeometry x="30" y="180" width="310" height="30" as="geometry">
            <mxRectangle width="310" height="30" as="alternateBounds" />
          </mxGeometry>
        </mxCell>
        <mxCell id="MNM0A-3LXQNNe9UuYe-N-3" value="fecha_alta: date - nullable" style="shape=partialRectangle;connectable=0;fillColor=none;top=0;left=0;bottom=0;right=0;align=left;spacingLeft=6;overflow=hidden;" parent="MNM0A-3LXQNNe9UuYe-N-13" vertex="1">
          <mxGeometry x="30" y="210" width="310" height="30" as="geometry">
            <mxRectangle width="310" height="30" as="alternateBounds" />
          </mxGeometry>
        </mxCell>
        <mxCell id="MNM0A-3LXQNNe9UuYe-N-4" value="fecha_baja: date - nullable" style="shape=partialRectangle;connectable=0;fillColor=none;top=0;left=0;bottom=0;right=0;align=left;spacingLeft=6;overflow=hidden;" parent="MNM0A-3LXQNNe9UuYe-N-13" vertex="1">
          <mxGeometry x="30" y="240" width="310" height="30" as="geometry">
            <mxRectangle width="310" height="30" as="alternateBounds" />
          </mxGeometry>
        </mxCell>
        <mxCell id="MNM0A-3LXQNNe9UuYe-N-43" value="" style="group" parent="MNM0A-3LXQNNe9UuYe-N-13" vertex="1" connectable="0">
          <mxGeometry width="340" height="440" as="geometry" />
        </mxCell>
        <mxCell id="edtG9JuQd5Cp_M4onZQ7-5" value="FK" style="shape=partialRectangle;connectable=0;fillColor=#ffff88;top=0;left=0;bottom=0;right=0;editable=1;overflow=hidden;align=left;strokeColor=#36393d;spacingLeft=6;fontStyle=0;" vertex="1" parent="MNM0A-3LXQNNe9UuYe-N-43">
          <mxGeometry y="343.995" width="30" height="36.5625" as="geometry">
            <mxRectangle width="30" height="30" as="alternateBounds" />
          </mxGeometry>
        </mxCell>
        <mxCell id="edtG9JuQd5Cp_M4onZQ7-8" value="" style="group" vertex="1" connectable="0" parent="MNM0A-3LXQNNe9UuYe-N-43">
          <mxGeometry width="340" height="440" as="geometry" />
        </mxCell>
        <mxCell id="gngZGeMC9GBTQBjWvx4m-1" value="dispositivos" style="shape=table;startSize=30;container=1;collapsible=1;childLayout=tableLayout;fixedRows=1;rowLines=0;fontStyle=1;align=center;resizeLast=1;" parent="edtG9JuQd5Cp_M4onZQ7-8" vertex="1">
          <mxGeometry width="340" height="440" as="geometry" />
        </mxCell>
        <mxCell id="gngZGeMC9GBTQBjWvx4m-2" value="" style="shape=partialRectangle;collapsible=0;dropTarget=0;pointerEvents=0;fillColor=none;top=0;left=0;bottom=1;right=0;points=[[0,0.5],[1,0.5]];portConstraint=eastwest;" parent="gngZGeMC9GBTQBjWvx4m-1" vertex="1">
          <mxGeometry y="30" width="340" height="30" as="geometry" />
        </mxCell>
        <mxCell id="gngZGeMC9GBTQBjWvx4m-3" value="PK" style="shape=partialRectangle;connectable=0;fillColor=#d5e8d4;top=0;left=0;bottom=0;right=0;fontStyle=1;overflow=hidden;strokeColor=#82b366;" parent="gngZGeMC9GBTQBjWvx4m-2" vertex="1">
          <mxGeometry width="30" height="30" as="geometry">
            <mxRectangle width="30" height="30" as="alternateBounds" />
          </mxGeometry>
        </mxCell>
        <mxCell id="gngZGeMC9GBTQBjWvx4m-4" value="id_dispositivo : int automatic" style="shape=partialRectangle;connectable=0;fillColor=#d5e8d4;top=0;left=0;bottom=0;right=0;align=left;spacingLeft=6;fontStyle=5;overflow=hidden;strokeColor=#82b366;" parent="gngZGeMC9GBTQBjWvx4m-2" vertex="1">
          <mxGeometry x="30" width="310" height="30" as="geometry">
            <mxRectangle width="310" height="30" as="alternateBounds" />
          </mxGeometry>
        </mxCell>
        <mxCell id="gngZGeMC9GBTQBjWvx4m-5" value="" style="shape=partialRectangle;collapsible=0;dropTarget=0;pointerEvents=0;fillColor=none;top=0;left=0;bottom=0;right=0;points=[[0,0.5],[1,0.5]];portConstraint=eastwest;" parent="gngZGeMC9GBTQBjWvx4m-1" vertex="1">
          <mxGeometry y="60" width="340" height="30" as="geometry" />
        </mxCell>
        <mxCell id="gngZGeMC9GBTQBjWvx4m-6" value="FK" style="shape=partialRectangle;connectable=0;fillColor=#ffff88;top=0;left=0;bottom=0;right=0;editable=1;overflow=hidden;align=left;strokeColor=#36393d;spacingLeft=6;fontStyle=0;" parent="gngZGeMC9GBTQBjWvx4m-5" vertex="1">
          <mxGeometry width="30" height="30" as="geometry">
            <mxRectangle width="30" height="30" as="alternateBounds" />
          </mxGeometry>
        </mxCell>
        <mxCell id="gngZGeMC9GBTQBjWvx4m-7" value="estado_id" style="shape=partialRectangle;connectable=0;fillColor=#ffff88;top=0;left=0;bottom=0;right=0;align=left;spacingLeft=6;overflow=hidden;strokeColor=#36393d;fontStyle=0;" parent="gngZGeMC9GBTQBjWvx4m-5" vertex="1">
          <mxGeometry x="30" width="310" height="30" as="geometry">
            <mxRectangle width="310" height="30" as="alternateBounds" />
          </mxGeometry>
        </mxCell>
        <mxCell id="gngZGeMC9GBTQBjWvx4m-8" value="" style="shape=partialRectangle;collapsible=0;dropTarget=0;pointerEvents=0;fillColor=none;top=0;left=0;bottom=0;right=0;points=[[0,0.5],[1,0.5]];portConstraint=eastwest;" parent="gngZGeMC9GBTQBjWvx4m-1" vertex="1">
          <mxGeometry y="90" width="340" height="30" as="geometry" />
        </mxCell>
        <mxCell id="gngZGeMC9GBTQBjWvx4m-9" value="" style="shape=partialRectangle;connectable=0;fillColor=none;top=0;left=0;bottom=0;right=0;editable=1;overflow=hidden;" parent="gngZGeMC9GBTQBjWvx4m-8" vertex="1">
          <mxGeometry width="30" height="30" as="geometry">
            <mxRectangle width="30" height="30" as="alternateBounds" />
          </mxGeometry>
        </mxCell>
        <mxCell id="gngZGeMC9GBTQBjWvx4m-10" value="detalle: varchar(500) - nullable" style="shape=partialRectangle;connectable=0;fillColor=none;top=0;left=0;bottom=0;right=0;align=left;spacingLeft=6;overflow=hidden;" parent="gngZGeMC9GBTQBjWvx4m-8" vertex="1">
          <mxGeometry x="30" width="310" height="30" as="geometry">
            <mxRectangle width="310" height="30" as="alternateBounds" />
          </mxGeometry>
        </mxCell>
        <mxCell id="gngZGeMC9GBTQBjWvx4m-11" value="" style="shape=partialRectangle;collapsible=0;dropTarget=0;pointerEvents=0;fillColor=none;top=0;left=0;bottom=0;right=0;points=[[0,0.5],[1,0.5]];portConstraint=eastwest;" parent="gngZGeMC9GBTQBjWvx4m-1" vertex="1">
          <mxGeometry y="120" width="340" height="30" as="geometry" />
        </mxCell>
        <mxCell id="gngZGeMC9GBTQBjWvx4m-12" value="" style="shape=partialRectangle;connectable=0;fillColor=none;top=0;left=0;bottom=0;right=0;editable=1;overflow=hidden;" parent="gngZGeMC9GBTQBjWvx4m-11" vertex="1">
          <mxGeometry width="30" height="30" as="geometry">
            <mxRectangle width="30" height="30" as="alternateBounds" />
          </mxGeometry>
        </mxCell>
        <mxCell id="gngZGeMC9GBTQBjWvx4m-13" value="imagen: varchar - nullable" style="shape=partialRectangle;connectable=0;fillColor=none;top=0;left=0;bottom=0;right=0;align=left;spacingLeft=6;overflow=hidden;" parent="gngZGeMC9GBTQBjWvx4m-11" vertex="1">
          <mxGeometry x="30" width="310" height="30" as="geometry">
            <mxRectangle width="310" height="30" as="alternateBounds" />
          </mxGeometry>
        </mxCell>
        <mxCell id="gngZGeMC9GBTQBjWvx4m-14" value="" style="shape=partialRectangle;collapsible=0;dropTarget=0;pointerEvents=0;fillColor=none;top=0;left=0;bottom=0;right=0;points=[[0,0.5],[1,0.5]];portConstraint=eastwest;" parent="gngZGeMC9GBTQBjWvx4m-1" vertex="1">
          <mxGeometry y="150" width="340" height="30" as="geometry" />
        </mxCell>
        <mxCell id="gngZGeMC9GBTQBjWvx4m-15" value="" style="shape=partialRectangle;connectable=0;fillColor=none;top=0;left=0;bottom=0;right=0;fontStyle=0;overflow=hidden;strokeColor=default;align=left;spacingLeft=6;strokeWidth=1;sketch=0;" parent="gngZGeMC9GBTQBjWvx4m-14" vertex="1">
          <mxGeometry width="30" height="30" as="geometry">
            <mxRectangle width="30" height="30" as="alternateBounds" />
          </mxGeometry>
        </mxCell>
        <mxCell id="gngZGeMC9GBTQBjWvx4m-16" value="" style="shape=partialRectangle;connectable=0;fillColor=none;top=0;left=0;bottom=0;right=0;align=left;spacingLeft=6;fontStyle=0;overflow=hidden;strokeColor=default;strokeWidth=1;sketch=0;" parent="gngZGeMC9GBTQBjWvx4m-14" vertex="1">
          <mxGeometry x="30" width="310" height="30" as="geometry">
            <mxRectangle width="310" height="30" as="alternateBounds" />
          </mxGeometry>
        </mxCell>
        <mxCell id="MNM0A-3LXQNNe9UuYe-N-41" value="tipo_dispositivo_id" style="shape=partialRectangle;connectable=0;fillColor=#ffff88;top=0;left=0;bottom=0;right=0;align=left;spacingLeft=6;overflow=hidden;strokeColor=#36393d;fontStyle=0;" parent="edtG9JuQd5Cp_M4onZQ7-8" vertex="1">
          <mxGeometry x="30" y="270.0025" width="310" height="36.5625" as="geometry">
            <mxRectangle width="310" height="30" as="alternateBounds" />
          </mxGeometry>
        </mxCell>
        <mxCell id="MNM0A-3LXQNNe9UuYe-N-42" value="FK" style="shape=partialRectangle;connectable=0;fillColor=#ffff88;top=0;left=0;bottom=0;right=0;editable=1;overflow=hidden;align=left;strokeColor=#36393d;spacingLeft=6;fontStyle=0;" parent="edtG9JuQd5Cp_M4onZQ7-8" vertex="1">
          <mxGeometry y="270.0025" width="30" height="36.5625" as="geometry">
            <mxRectangle width="30" height="30" as="alternateBounds" />
          </mxGeometry>
        </mxCell>
        <mxCell id="edtG9JuQd5Cp_M4onZQ7-2" value="unidad_id: int - no nullable" style="shape=partialRectangle;connectable=0;fillColor=#ffff88;top=0;left=0;bottom=0;right=0;align=left;spacingLeft=6;overflow=hidden;strokeColor=#36393d;fontStyle=0;" vertex="1" parent="edtG9JuQd5Cp_M4onZQ7-8">
          <mxGeometry x="30" y="307.005" width="310" height="36.5625" as="geometry">
            <mxRectangle width="310" height="30" as="alternateBounds" />
          </mxGeometry>
        </mxCell>
        <mxCell id="edtG9JuQd5Cp_M4onZQ7-3" value="FK" style="shape=partialRectangle;connectable=0;fillColor=#ffff88;top=0;left=0;bottom=0;right=0;editable=1;overflow=hidden;align=left;strokeColor=#36393d;spacingLeft=6;fontStyle=0;" vertex="1" parent="edtG9JuQd5Cp_M4onZQ7-8">
          <mxGeometry y="307.005" width="30" height="36.5625" as="geometry">
            <mxRectangle width="30" height="30" as="alternateBounds" />
          </mxGeometry>
        </mxCell>
        <mxCell id="edtG9JuQd5Cp_M4onZQ7-4" value="departamento_id: int -no nullable" style="shape=partialRectangle;connectable=0;fillColor=#ffff88;top=0;left=0;bottom=0;right=0;align=left;spacingLeft=6;overflow=hidden;strokeColor=#36393d;fontStyle=0;" vertex="1" parent="edtG9JuQd5Cp_M4onZQ7-8">
          <mxGeometry x="30" y="343.995" width="310" height="36.5625" as="geometry">
            <mxRectangle width="310" height="30" as="alternateBounds" />
          </mxGeometry>
        </mxCell>
        <mxCell id="edtG9JuQd5Cp_M4onZQ7-6" value="division_id: int - no nullable" style="shape=partialRectangle;connectable=0;fillColor=#ffff88;top=0;left=0;bottom=0;right=0;align=left;spacingLeft=6;overflow=hidden;strokeColor=#36393d;fontStyle=0;" vertex="1" parent="edtG9JuQd5Cp_M4onZQ7-8">
          <mxGeometry x="30" y="380.555" width="310" height="36.5625" as="geometry">
            <mxRectangle width="310" height="30" as="alternateBounds" />
          </mxGeometry>
        </mxCell>
        <mxCell id="edtG9JuQd5Cp_M4onZQ7-7" value="FK" style="shape=partialRectangle;connectable=0;fillColor=#ffff88;top=0;left=0;bottom=0;right=0;editable=1;overflow=hidden;align=left;strokeColor=#36393d;spacingLeft=6;fontStyle=0;" vertex="1" parent="edtG9JuQd5Cp_M4onZQ7-8">
          <mxGeometry y="380.555" width="30" height="36.5625" as="geometry">
            <mxRectangle width="30" height="30" as="alternateBounds" />
          </mxGeometry>
        </mxCell>
        <mxCell id="MNM0A-3LXQNNe9UuYe-N-14" value="estado" style="shape=table;startSize=30;container=1;collapsible=1;childLayout=tableLayout;fixedRows=1;rowLines=0;fontStyle=1;align=center;resizeLast=1;sketch=0;strokeColor=default;strokeWidth=1;fillColor=none;" parent="1" vertex="1">
          <mxGeometry x="-130" y="30" width="180" height="120" as="geometry" />
        </mxCell>
        <mxCell id="MNM0A-3LXQNNe9UuYe-N-15" value="" style="shape=partialRectangle;collapsible=0;dropTarget=0;pointerEvents=0;fillColor=none;top=0;left=0;bottom=1;right=0;points=[[0,0.5],[1,0.5]];portConstraint=eastwest;sketch=0;strokeColor=default;strokeWidth=1;" parent="MNM0A-3LXQNNe9UuYe-N-14" vertex="1">
          <mxGeometry y="30" width="180" height="30" as="geometry" />
        </mxCell>
        <mxCell id="MNM0A-3LXQNNe9UuYe-N-16" value="PK" style="shape=partialRectangle;connectable=0;fillColor=#d5e8d4;top=0;left=0;bottom=0;right=0;fontStyle=1;overflow=hidden;sketch=0;strokeColor=#82b366;strokeWidth=1;" parent="MNM0A-3LXQNNe9UuYe-N-15" vertex="1">
          <mxGeometry width="30" height="30" as="geometry">
            <mxRectangle width="30" height="30" as="alternateBounds" />
          </mxGeometry>
        </mxCell>
        <mxCell id="MNM0A-3LXQNNe9UuYe-N-17" value="id_estado: int automatic" style="shape=partialRectangle;connectable=0;fillColor=#d5e8d4;top=0;left=0;bottom=0;right=0;align=left;spacingLeft=6;fontStyle=5;overflow=hidden;sketch=0;strokeColor=#82b366;strokeWidth=1;" parent="MNM0A-3LXQNNe9UuYe-N-15" vertex="1">
          <mxGeometry x="30" width="150" height="30" as="geometry">
            <mxRectangle width="150" height="30" as="alternateBounds" />
          </mxGeometry>
        </mxCell>
        <mxCell id="MNM0A-3LXQNNe9UuYe-N-18" value="" style="shape=partialRectangle;collapsible=0;dropTarget=0;pointerEvents=0;fillColor=none;top=0;left=0;bottom=0;right=0;points=[[0,0.5],[1,0.5]];portConstraint=eastwest;sketch=0;strokeColor=default;strokeWidth=1;" parent="MNM0A-3LXQNNe9UuYe-N-14" vertex="1">
          <mxGeometry y="60" width="180" height="30" as="geometry" />
        </mxCell>
        <mxCell id="MNM0A-3LXQNNe9UuYe-N-19" value="" style="shape=partialRectangle;connectable=0;fillColor=none;top=0;left=0;bottom=0;right=0;editable=1;overflow=hidden;sketch=0;strokeColor=default;strokeWidth=1;" parent="MNM0A-3LXQNNe9UuYe-N-18" vertex="1">
          <mxGeometry width="30" height="30" as="geometry">
            <mxRectangle width="30" height="30" as="alternateBounds" />
          </mxGeometry>
        </mxCell>
        <mxCell id="MNM0A-3LXQNNe9UuYe-N-20" value="estado" style="shape=partialRectangle;connectable=0;fillColor=none;top=0;left=0;bottom=0;right=0;align=left;spacingLeft=6;overflow=hidden;sketch=0;strokeColor=default;strokeWidth=1;" parent="MNM0A-3LXQNNe9UuYe-N-18" vertex="1">
          <mxGeometry x="30" width="150" height="30" as="geometry">
            <mxRectangle width="150" height="30" as="alternateBounds" />
          </mxGeometry>
        </mxCell>
        <mxCell id="MNM0A-3LXQNNe9UuYe-N-21" value="" style="shape=partialRectangle;collapsible=0;dropTarget=0;pointerEvents=0;fillColor=none;top=0;left=0;bottom=0;right=0;points=[[0,0.5],[1,0.5]];portConstraint=eastwest;sketch=0;strokeColor=default;strokeWidth=1;" parent="MNM0A-3LXQNNe9UuYe-N-14" vertex="1">
          <mxGeometry y="90" width="180" height="30" as="geometry" />
        </mxCell>
        <mxCell id="MNM0A-3LXQNNe9UuYe-N-22" value="" style="shape=partialRectangle;connectable=0;fillColor=none;top=0;left=0;bottom=0;right=0;editable=1;overflow=hidden;sketch=0;strokeColor=default;strokeWidth=1;" parent="MNM0A-3LXQNNe9UuYe-N-21" vertex="1">
          <mxGeometry width="30" height="30" as="geometry">
            <mxRectangle width="30" height="30" as="alternateBounds" />
          </mxGeometry>
        </mxCell>
        <mxCell id="MNM0A-3LXQNNe9UuYe-N-23" value="" style="shape=partialRectangle;connectable=0;fillColor=none;top=0;left=0;bottom=0;right=0;align=left;spacingLeft=6;overflow=hidden;sketch=0;strokeColor=default;strokeWidth=1;" parent="MNM0A-3LXQNNe9UuYe-N-21" vertex="1">
          <mxGeometry x="30" width="150" height="30" as="geometry">
            <mxRectangle width="150" height="30" as="alternateBounds" />
          </mxGeometry>
        </mxCell>
        <mxCell id="MNM0A-3LXQNNe9UuYe-N-27" style="edgeStyle=orthogonalEdgeStyle;rounded=0;orthogonalLoop=1;jettySize=auto;html=1;endArrow=ERmany;endFill=0;" parent="1" source="MNM0A-3LXQNNe9UuYe-N-15" target="gngZGeMC9GBTQBjWvx4m-5" edge="1">
          <mxGeometry relative="1" as="geometry" />
        </mxCell>
        <mxCell id="MNM0A-3LXQNNe9UuYe-N-28" value="componentes" style="shape=table;startSize=30;container=1;collapsible=1;childLayout=tableLayout;fixedRows=1;rowLines=0;fontStyle=1;align=center;resizeLast=1;sketch=0;strokeColor=default;strokeWidth=1;fillColor=none;" parent="1" vertex="1">
          <mxGeometry x="-140" y="180" width="290" height="230" as="geometry" />
        </mxCell>
        <mxCell id="MNM0A-3LXQNNe9UuYe-N-29" value="" style="shape=partialRectangle;collapsible=0;dropTarget=0;pointerEvents=0;fillColor=none;top=0;left=0;bottom=1;right=0;points=[[0,0.5],[1,0.5]];portConstraint=eastwest;sketch=0;strokeColor=default;strokeWidth=1;" parent="MNM0A-3LXQNNe9UuYe-N-28" vertex="1">
          <mxGeometry y="30" width="290" height="30" as="geometry" />
        </mxCell>
        <mxCell id="MNM0A-3LXQNNe9UuYe-N-30" value="PK" style="shape=partialRectangle;connectable=0;fillColor=#d5e8d4;top=0;left=0;bottom=0;right=0;fontStyle=5;overflow=hidden;sketch=0;strokeColor=#82b366;strokeWidth=1;align=left;spacingLeft=6;" parent="MNM0A-3LXQNNe9UuYe-N-29" vertex="1">
          <mxGeometry width="30" height="30" as="geometry">
            <mxRectangle width="30" height="30" as="alternateBounds" />
          </mxGeometry>
        </mxCell>
        <mxCell id="MNM0A-3LXQNNe9UuYe-N-31" value="id_componente" style="shape=partialRectangle;connectable=0;fillColor=#d5e8d4;top=0;left=0;bottom=0;right=0;align=left;spacingLeft=6;fontStyle=5;overflow=hidden;sketch=0;strokeColor=#82b366;strokeWidth=1;" parent="MNM0A-3LXQNNe9UuYe-N-29" vertex="1">
          <mxGeometry x="30" width="260" height="30" as="geometry">
            <mxRectangle width="260" height="30" as="alternateBounds" />
          </mxGeometry>
        </mxCell>
        <mxCell id="MNM0A-3LXQNNe9UuYe-N-32" value="" style="shape=partialRectangle;collapsible=0;dropTarget=0;pointerEvents=0;fillColor=none;top=0;left=0;bottom=0;right=0;points=[[0,0.5],[1,0.5]];portConstraint=eastwest;sketch=0;strokeColor=default;strokeWidth=1;" parent="MNM0A-3LXQNNe9UuYe-N-28" vertex="1">
          <mxGeometry y="60" width="290" height="30" as="geometry" />
        </mxCell>
        <mxCell id="MNM0A-3LXQNNe9UuYe-N-33" value="FK" style="shape=partialRectangle;connectable=0;fillColor=#ffff88;top=0;left=0;bottom=0;right=0;editable=1;overflow=hidden;sketch=0;strokeColor=#36393d;strokeWidth=1;align=left;spacingLeft=6;fontStyle=0;" parent="MNM0A-3LXQNNe9UuYe-N-32" vertex="1">
          <mxGeometry width="30" height="30" as="geometry">
            <mxRectangle width="30" height="30" as="alternateBounds" />
          </mxGeometry>
        </mxCell>
        <mxCell id="MNM0A-3LXQNNe9UuYe-N-34" value="tipo_componente_id" style="shape=partialRectangle;connectable=0;fillColor=#ffff88;top=0;left=0;bottom=0;right=0;align=left;spacingLeft=6;overflow=hidden;sketch=0;strokeColor=#36393d;strokeWidth=1;fontStyle=0;" parent="MNM0A-3LXQNNe9UuYe-N-32" vertex="1">
          <mxGeometry x="30" width="260" height="30" as="geometry">
            <mxRectangle width="260" height="30" as="alternateBounds" />
          </mxGeometry>
        </mxCell>
        <mxCell id="MNM0A-3LXQNNe9UuYe-N-35" value="" style="shape=partialRectangle;collapsible=0;dropTarget=0;pointerEvents=0;fillColor=none;top=0;left=0;bottom=0;right=0;points=[[0,0.5],[1,0.5]];portConstraint=eastwest;sketch=0;strokeColor=default;strokeWidth=1;" parent="MNM0A-3LXQNNe9UuYe-N-28" vertex="1">
          <mxGeometry y="90" width="290" height="30" as="geometry" />
        </mxCell>
        <mxCell id="MNM0A-3LXQNNe9UuYe-N-36" value="" style="shape=partialRectangle;connectable=0;fillColor=none;top=0;left=0;bottom=0;right=0;editable=1;overflow=hidden;sketch=0;strokeColor=default;strokeWidth=1;" parent="MNM0A-3LXQNNe9UuYe-N-35" vertex="1">
          <mxGeometry width="30" height="30" as="geometry">
            <mxRectangle width="30" height="30" as="alternateBounds" />
          </mxGeometry>
        </mxCell>
        <mxCell id="MNM0A-3LXQNNe9UuYe-N-37" value="marca: varchar(300) - nullable" style="shape=partialRectangle;connectable=0;fillColor=none;top=0;left=0;bottom=0;right=0;align=left;spacingLeft=6;overflow=hidden;sketch=0;strokeColor=default;strokeWidth=1;" parent="MNM0A-3LXQNNe9UuYe-N-35" vertex="1">
          <mxGeometry x="30" width="260" height="30" as="geometry">
            <mxRectangle width="260" height="30" as="alternateBounds" />
          </mxGeometry>
        </mxCell>
        <mxCell id="MNM0A-3LXQNNe9UuYe-N-38" value="" style="shape=partialRectangle;collapsible=0;dropTarget=0;pointerEvents=0;fillColor=none;top=0;left=0;bottom=0;right=0;points=[[0,0.5],[1,0.5]];portConstraint=eastwest;sketch=0;strokeColor=default;strokeWidth=1;" parent="MNM0A-3LXQNNe9UuYe-N-28" vertex="1">
          <mxGeometry y="120" width="290" height="30" as="geometry" />
        </mxCell>
        <mxCell id="MNM0A-3LXQNNe9UuYe-N-39" value="" style="shape=partialRectangle;connectable=0;fillColor=none;top=0;left=0;bottom=0;right=0;editable=1;overflow=hidden;sketch=0;strokeColor=default;strokeWidth=1;" parent="MNM0A-3LXQNNe9UuYe-N-38" vertex="1">
          <mxGeometry width="30" height="30" as="geometry">
            <mxRectangle width="30" height="30" as="alternateBounds" />
          </mxGeometry>
        </mxCell>
        <mxCell id="MNM0A-3LXQNNe9UuYe-N-40" value="modelo: varchar(300) - nullable" style="shape=partialRectangle;connectable=0;fillColor=none;top=0;left=0;bottom=0;right=0;align=left;spacingLeft=6;overflow=hidden;sketch=0;strokeColor=default;strokeWidth=1;" parent="MNM0A-3LXQNNe9UuYe-N-38" vertex="1">
          <mxGeometry x="30" width="260" height="30" as="geometry">
            <mxRectangle width="260" height="30" as="alternateBounds" />
          </mxGeometry>
        </mxCell>
        <mxCell id="MNM0A-3LXQNNe9UuYe-N-73" value="" style="shape=partialRectangle;collapsible=0;dropTarget=0;pointerEvents=0;fillColor=none;top=0;left=0;bottom=0;right=0;points=[[0,0.5],[1,0.5]];portConstraint=eastwest;sketch=0;strokeColor=default;strokeWidth=1;" parent="MNM0A-3LXQNNe9UuYe-N-28" vertex="1">
          <mxGeometry y="150" width="290" height="30" as="geometry" />
        </mxCell>
        <mxCell id="MNM0A-3LXQNNe9UuYe-N-74" value="" style="shape=partialRectangle;connectable=0;fillColor=none;top=0;left=0;bottom=0;right=0;editable=1;overflow=hidden;sketch=0;strokeColor=default;strokeWidth=1;" parent="MNM0A-3LXQNNe9UuYe-N-73" vertex="1">
          <mxGeometry width="30" height="30" as="geometry">
            <mxRectangle width="30" height="30" as="alternateBounds" />
          </mxGeometry>
        </mxCell>
        <mxCell id="MNM0A-3LXQNNe9UuYe-N-75" value="detalles: varchar(500) - nullable" style="shape=partialRectangle;connectable=0;fillColor=none;top=0;left=0;bottom=0;right=0;align=left;spacingLeft=6;overflow=hidden;sketch=0;strokeColor=default;strokeWidth=1;" parent="MNM0A-3LXQNNe9UuYe-N-73" vertex="1">
          <mxGeometry x="30" width="260" height="30" as="geometry">
            <mxRectangle width="260" height="30" as="alternateBounds" />
          </mxGeometry>
        </mxCell>
        <mxCell id="MNM0A-3LXQNNe9UuYe-N-76" value="" style="shape=partialRectangle;collapsible=0;dropTarget=0;pointerEvents=0;fillColor=none;top=0;left=0;bottom=0;right=0;points=[[0,0.5],[1,0.5]];portConstraint=eastwest;sketch=0;strokeColor=default;strokeWidth=1;" parent="MNM0A-3LXQNNe9UuYe-N-28" vertex="1">
          <mxGeometry y="180" width="290" height="30" as="geometry" />
        </mxCell>
        <mxCell id="MNM0A-3LXQNNe9UuYe-N-77" value="FK" style="shape=partialRectangle;connectable=0;fillColor=#ffff88;top=0;left=0;bottom=0;right=0;editable=1;overflow=hidden;sketch=0;strokeColor=#36393d;strokeWidth=1;align=left;spacingLeft=6;fontStyle=0;" parent="MNM0A-3LXQNNe9UuYe-N-76" vertex="1">
          <mxGeometry width="30" height="30" as="geometry">
            <mxRectangle width="30" height="30" as="alternateBounds" />
          </mxGeometry>
        </mxCell>
        <mxCell id="MNM0A-3LXQNNe9UuYe-N-78" value="dispositivo_id: int no nullable" style="shape=partialRectangle;connectable=0;fillColor=#ffff88;top=0;left=0;bottom=0;right=0;align=left;spacingLeft=6;overflow=hidden;sketch=0;strokeColor=#36393d;strokeWidth=1;fontStyle=0;" parent="MNM0A-3LXQNNe9UuYe-N-76" vertex="1">
          <mxGeometry x="30" width="260" height="30" as="geometry">
            <mxRectangle width="260" height="30" as="alternateBounds" />
          </mxGeometry>
        </mxCell>
        <mxCell id="MNM0A-3LXQNNe9UuYe-N-44" value="tipo_componente" style="shape=table;startSize=30;container=1;collapsible=1;childLayout=tableLayout;fixedRows=1;rowLines=0;fontStyle=1;align=center;resizeLast=1;sketch=0;strokeColor=default;strokeWidth=1;fillColor=none;" parent="1" vertex="1">
          <mxGeometry x="-690" y="550" width="350" height="150" as="geometry" />
        </mxCell>
        <mxCell id="MNM0A-3LXQNNe9UuYe-N-45" value="" style="shape=partialRectangle;collapsible=0;dropTarget=0;pointerEvents=0;fillColor=none;top=0;left=0;bottom=1;right=0;points=[[0,0.5],[1,0.5]];portConstraint=eastwest;sketch=0;strokeColor=default;strokeWidth=1;" parent="MNM0A-3LXQNNe9UuYe-N-44" vertex="1">
          <mxGeometry y="30" width="350" height="30" as="geometry" />
        </mxCell>
        <mxCell id="MNM0A-3LXQNNe9UuYe-N-46" value="PK" style="shape=partialRectangle;connectable=0;fillColor=#d5e8d4;top=0;left=0;bottom=0;right=0;fontStyle=1;overflow=hidden;sketch=0;strokeColor=#82b366;strokeWidth=1;" parent="MNM0A-3LXQNNe9UuYe-N-45" vertex="1">
          <mxGeometry width="30" height="30" as="geometry">
            <mxRectangle width="30" height="30" as="alternateBounds" />
          </mxGeometry>
        </mxCell>
        <mxCell id="MNM0A-3LXQNNe9UuYe-N-47" value="id_tipo_componente: int automatic" style="shape=partialRectangle;connectable=0;fillColor=#d5e8d4;top=0;left=0;bottom=0;right=0;align=left;spacingLeft=6;fontStyle=5;overflow=hidden;sketch=0;strokeColor=#82b366;strokeWidth=1;" parent="MNM0A-3LXQNNe9UuYe-N-45" vertex="1">
          <mxGeometry x="30" width="320" height="30" as="geometry">
            <mxRectangle width="320" height="30" as="alternateBounds" />
          </mxGeometry>
        </mxCell>
        <mxCell id="MNM0A-3LXQNNe9UuYe-N-48" value="" style="shape=partialRectangle;collapsible=0;dropTarget=0;pointerEvents=0;fillColor=none;top=0;left=0;bottom=0;right=0;points=[[0,0.5],[1,0.5]];portConstraint=eastwest;sketch=0;strokeColor=default;strokeWidth=1;" parent="MNM0A-3LXQNNe9UuYe-N-44" vertex="1">
          <mxGeometry y="60" width="350" height="30" as="geometry" />
        </mxCell>
        <mxCell id="MNM0A-3LXQNNe9UuYe-N-49" value="" style="shape=partialRectangle;connectable=0;fillColor=none;top=0;left=0;bottom=0;right=0;editable=1;overflow=hidden;sketch=0;strokeColor=default;strokeWidth=1;" parent="MNM0A-3LXQNNe9UuYe-N-48" vertex="1">
          <mxGeometry width="30" height="30" as="geometry">
            <mxRectangle width="30" height="30" as="alternateBounds" />
          </mxGeometry>
        </mxCell>
        <mxCell id="MNM0A-3LXQNNe9UuYe-N-50" value="tipo: varchar 300" style="shape=partialRectangle;connectable=0;fillColor=none;top=0;left=0;bottom=0;right=0;align=left;spacingLeft=6;overflow=hidden;sketch=0;strokeColor=default;strokeWidth=1;" parent="MNM0A-3LXQNNe9UuYe-N-48" vertex="1">
          <mxGeometry x="30" width="320" height="30" as="geometry">
            <mxRectangle width="320" height="30" as="alternateBounds" />
          </mxGeometry>
        </mxCell>
        <mxCell id="MNM0A-3LXQNNe9UuYe-N-51" value="" style="shape=partialRectangle;collapsible=0;dropTarget=0;pointerEvents=0;fillColor=none;top=0;left=0;bottom=0;right=0;points=[[0,0.5],[1,0.5]];portConstraint=eastwest;sketch=0;strokeColor=default;strokeWidth=1;" parent="MNM0A-3LXQNNe9UuYe-N-44" vertex="1">
          <mxGeometry y="90" width="350" height="30" as="geometry" />
        </mxCell>
        <mxCell id="MNM0A-3LXQNNe9UuYe-N-52" value="" style="shape=partialRectangle;connectable=0;fillColor=none;top=0;left=0;bottom=0;right=0;editable=1;overflow=hidden;sketch=0;strokeColor=default;strokeWidth=1;" parent="MNM0A-3LXQNNe9UuYe-N-51" vertex="1">
          <mxGeometry width="30" height="30" as="geometry">
            <mxRectangle width="30" height="30" as="alternateBounds" />
          </mxGeometry>
        </mxCell>
        <mxCell id="MNM0A-3LXQNNe9UuYe-N-53" value="" style="shape=partialRectangle;connectable=0;fillColor=none;top=0;left=0;bottom=0;right=0;align=left;spacingLeft=6;overflow=hidden;sketch=0;strokeColor=default;strokeWidth=1;" parent="MNM0A-3LXQNNe9UuYe-N-51" vertex="1">
          <mxGeometry x="30" width="320" height="30" as="geometry">
            <mxRectangle width="320" height="30" as="alternateBounds" />
          </mxGeometry>
        </mxCell>
        <mxCell id="MNM0A-3LXQNNe9UuYe-N-54" value="" style="shape=partialRectangle;collapsible=0;dropTarget=0;pointerEvents=0;fillColor=none;top=0;left=0;bottom=0;right=0;points=[[0,0.5],[1,0.5]];portConstraint=eastwest;sketch=0;strokeColor=default;strokeWidth=1;" parent="MNM0A-3LXQNNe9UuYe-N-44" vertex="1">
          <mxGeometry y="120" width="350" height="30" as="geometry" />
        </mxCell>
        <mxCell id="MNM0A-3LXQNNe9UuYe-N-55" value="" style="shape=partialRectangle;connectable=0;fillColor=none;top=0;left=0;bottom=0;right=0;editable=1;overflow=hidden;sketch=0;strokeColor=default;strokeWidth=1;" parent="MNM0A-3LXQNNe9UuYe-N-54" vertex="1">
          <mxGeometry width="30" height="30" as="geometry">
            <mxRectangle width="30" height="30" as="alternateBounds" />
          </mxGeometry>
        </mxCell>
        <mxCell id="MNM0A-3LXQNNe9UuYe-N-56" value="" style="shape=partialRectangle;connectable=0;fillColor=none;top=0;left=0;bottom=0;right=0;align=left;spacingLeft=6;overflow=hidden;sketch=0;strokeColor=default;strokeWidth=1;" parent="MNM0A-3LXQNNe9UuYe-N-54" vertex="1">
          <mxGeometry x="30" width="320" height="30" as="geometry">
            <mxRectangle width="320" height="30" as="alternateBounds" />
          </mxGeometry>
        </mxCell>
        <mxCell id="MNM0A-3LXQNNe9UuYe-N-58" value="tipo_dispositivo" style="shape=table;startSize=30;container=1;collapsible=1;childLayout=tableLayout;fixedRows=1;rowLines=0;fontStyle=1;align=center;resizeLast=1;sketch=0;strokeColor=default;strokeWidth=1;fillColor=none;" parent="1" vertex="1">
          <mxGeometry x="-1150" y="80" width="290" height="150" as="geometry" />
        </mxCell>
        <mxCell id="MNM0A-3LXQNNe9UuYe-N-59" value="" style="shape=partialRectangle;collapsible=0;dropTarget=0;pointerEvents=0;fillColor=none;top=0;left=0;bottom=1;right=0;points=[[0,0.5],[1,0.5]];portConstraint=eastwest;sketch=0;strokeColor=default;strokeWidth=1;" parent="MNM0A-3LXQNNe9UuYe-N-58" vertex="1">
          <mxGeometry y="30" width="290" height="30" as="geometry" />
        </mxCell>
        <mxCell id="MNM0A-3LXQNNe9UuYe-N-60" value="PK" style="shape=partialRectangle;connectable=0;fillColor=#d5e8d4;top=0;left=0;bottom=0;right=0;fontStyle=1;overflow=hidden;sketch=0;strokeColor=#82b366;strokeWidth=1;" parent="MNM0A-3LXQNNe9UuYe-N-59" vertex="1">
          <mxGeometry width="30" height="30" as="geometry">
            <mxRectangle width="30" height="30" as="alternateBounds" />
          </mxGeometry>
        </mxCell>
        <mxCell id="MNM0A-3LXQNNe9UuYe-N-61" value="id_tipo_dispositivo: int automatic" style="shape=partialRectangle;connectable=0;fillColor=#d5e8d4;top=0;left=0;bottom=0;right=0;align=left;spacingLeft=6;fontStyle=5;overflow=hidden;sketch=0;strokeColor=#82b366;strokeWidth=1;" parent="MNM0A-3LXQNNe9UuYe-N-59" vertex="1">
          <mxGeometry x="30" width="260" height="30" as="geometry">
            <mxRectangle width="260" height="30" as="alternateBounds" />
          </mxGeometry>
        </mxCell>
        <mxCell id="MNM0A-3LXQNNe9UuYe-N-62" value="" style="shape=partialRectangle;collapsible=0;dropTarget=0;pointerEvents=0;fillColor=none;top=0;left=0;bottom=0;right=0;points=[[0,0.5],[1,0.5]];portConstraint=eastwest;sketch=0;strokeColor=default;strokeWidth=1;" parent="MNM0A-3LXQNNe9UuYe-N-58" vertex="1">
          <mxGeometry y="60" width="290" height="30" as="geometry" />
        </mxCell>
        <mxCell id="MNM0A-3LXQNNe9UuYe-N-63" value="" style="shape=partialRectangle;connectable=0;fillColor=none;top=0;left=0;bottom=0;right=0;editable=1;overflow=hidden;sketch=0;strokeColor=default;strokeWidth=1;" parent="MNM0A-3LXQNNe9UuYe-N-62" vertex="1">
          <mxGeometry width="30" height="30" as="geometry">
            <mxRectangle width="30" height="30" as="alternateBounds" />
          </mxGeometry>
        </mxCell>
        <mxCell id="MNM0A-3LXQNNe9UuYe-N-64" value="tipo: varchar 300" style="shape=partialRectangle;connectable=0;fillColor=none;top=0;left=0;bottom=0;right=0;align=left;spacingLeft=6;overflow=hidden;sketch=0;strokeColor=default;strokeWidth=1;" parent="MNM0A-3LXQNNe9UuYe-N-62" vertex="1">
          <mxGeometry x="30" width="260" height="30" as="geometry">
            <mxRectangle width="260" height="30" as="alternateBounds" />
          </mxGeometry>
        </mxCell>
        <mxCell id="MNM0A-3LXQNNe9UuYe-N-65" value="" style="shape=partialRectangle;collapsible=0;dropTarget=0;pointerEvents=0;fillColor=none;top=0;left=0;bottom=0;right=0;points=[[0,0.5],[1,0.5]];portConstraint=eastwest;sketch=0;strokeColor=default;strokeWidth=1;" parent="MNM0A-3LXQNNe9UuYe-N-58" vertex="1">
          <mxGeometry y="90" width="290" height="30" as="geometry" />
        </mxCell>
        <mxCell id="MNM0A-3LXQNNe9UuYe-N-66" value="" style="shape=partialRectangle;connectable=0;fillColor=none;top=0;left=0;bottom=0;right=0;editable=1;overflow=hidden;sketch=0;strokeColor=default;strokeWidth=1;" parent="MNM0A-3LXQNNe9UuYe-N-65" vertex="1">
          <mxGeometry width="30" height="30" as="geometry">
            <mxRectangle width="30" height="30" as="alternateBounds" />
          </mxGeometry>
        </mxCell>
        <mxCell id="MNM0A-3LXQNNe9UuYe-N-67" value="" style="shape=partialRectangle;connectable=0;fillColor=none;top=0;left=0;bottom=0;right=0;align=left;spacingLeft=6;overflow=hidden;sketch=0;strokeColor=default;strokeWidth=1;" parent="MNM0A-3LXQNNe9UuYe-N-65" vertex="1">
          <mxGeometry x="30" width="260" height="30" as="geometry">
            <mxRectangle width="260" height="30" as="alternateBounds" />
          </mxGeometry>
        </mxCell>
        <mxCell id="MNM0A-3LXQNNe9UuYe-N-68" value="" style="shape=partialRectangle;collapsible=0;dropTarget=0;pointerEvents=0;fillColor=none;top=0;left=0;bottom=0;right=0;points=[[0,0.5],[1,0.5]];portConstraint=eastwest;sketch=0;strokeColor=default;strokeWidth=1;" parent="MNM0A-3LXQNNe9UuYe-N-58" vertex="1">
          <mxGeometry y="120" width="290" height="30" as="geometry" />
        </mxCell>
        <mxCell id="MNM0A-3LXQNNe9UuYe-N-69" value="" style="shape=partialRectangle;connectable=0;fillColor=none;top=0;left=0;bottom=0;right=0;editable=1;overflow=hidden;sketch=0;strokeColor=default;strokeWidth=1;" parent="MNM0A-3LXQNNe9UuYe-N-68" vertex="1">
          <mxGeometry width="30" height="30" as="geometry">
            <mxRectangle width="30" height="30" as="alternateBounds" />
          </mxGeometry>
        </mxCell>
        <mxCell id="MNM0A-3LXQNNe9UuYe-N-70" value="" style="shape=partialRectangle;connectable=0;fillColor=none;top=0;left=0;bottom=0;right=0;align=left;spacingLeft=6;overflow=hidden;sketch=0;strokeColor=default;strokeWidth=1;" parent="MNM0A-3LXQNNe9UuYe-N-68" vertex="1">
          <mxGeometry x="30" width="260" height="30" as="geometry">
            <mxRectangle width="260" height="30" as="alternateBounds" />
          </mxGeometry>
        </mxCell>
        <mxCell id="MNM0A-3LXQNNe9UuYe-N-71" style="edgeStyle=orthogonalEdgeStyle;rounded=0;orthogonalLoop=1;jettySize=auto;html=1;endArrow=ERmany;endFill=0;" parent="1" source="MNM0A-3LXQNNe9UuYe-N-59" edge="1">
          <mxGeometry relative="1" as="geometry">
            <mxPoint x="-700" y="350" as="targetPoint" />
            <Array as="points">
              <mxPoint x="-740" y="125" />
              <mxPoint x="-740" y="350" />
            </Array>
          </mxGeometry>
        </mxCell>
        <mxCell id="MNM0A-3LXQNNe9UuYe-N-72" style="edgeStyle=orthogonalEdgeStyle;rounded=0;orthogonalLoop=1;jettySize=auto;html=1;entryX=0;entryY=0.5;entryDx=0;entryDy=0;endArrow=ERmany;endFill=0;" parent="1" source="MNM0A-3LXQNNe9UuYe-N-45" target="MNM0A-3LXQNNe9UuYe-N-32" edge="1">
          <mxGeometry relative="1" as="geometry" />
        </mxCell>
        <mxCell id="MNM0A-3LXQNNe9UuYe-N-79" style="edgeStyle=orthogonalEdgeStyle;rounded=0;orthogonalLoop=1;jettySize=auto;html=1;entryX=0;entryY=0.5;entryDx=0;entryDy=0;endArrow=ERmany;endFill=0;" parent="1" source="gngZGeMC9GBTQBjWvx4m-2" target="MNM0A-3LXQNNe9UuYe-N-76" edge="1">
          <mxGeometry relative="1" as="geometry">
            <Array as="points">
              <mxPoint x="-300" y="115" />
              <mxPoint x="-300" y="465" />
              <mxPoint x="-160" y="465" />
              <mxPoint x="-160" y="375" />
            </Array>
          </mxGeometry>
        </mxCell>
        <mxCell id="MNM0A-3LXQNNe9UuYe-N-80" value="trabajos" style="shape=table;startSize=30;container=1;collapsible=1;childLayout=tableLayout;fixedRows=1;rowLines=0;fontStyle=1;align=center;resizeLast=1;sketch=0;strokeColor=default;strokeWidth=1;fillColor=none;" parent="1" vertex="1">
          <mxGeometry x="-1150" y="320" width="280" height="240" as="geometry" />
        </mxCell>
        <mxCell id="MNM0A-3LXQNNe9UuYe-N-81" value="" style="shape=partialRectangle;collapsible=0;dropTarget=0;pointerEvents=0;fillColor=none;top=0;left=0;bottom=1;right=0;points=[[0,0.5],[1,0.5]];portConstraint=eastwest;sketch=0;strokeColor=default;strokeWidth=1;" parent="MNM0A-3LXQNNe9UuYe-N-80" vertex="1">
          <mxGeometry y="30" width="280" height="30" as="geometry" />
        </mxCell>
        <mxCell id="MNM0A-3LXQNNe9UuYe-N-82" value="PK" style="shape=partialRectangle;connectable=0;fillColor=#d5e8d4;top=0;left=0;bottom=0;right=0;fontStyle=1;overflow=hidden;sketch=0;strokeColor=#82b366;strokeWidth=1;" parent="MNM0A-3LXQNNe9UuYe-N-81" vertex="1">
          <mxGeometry width="30" height="30" as="geometry">
            <mxRectangle width="30" height="30" as="alternateBounds" />
          </mxGeometry>
        </mxCell>
        <mxCell id="MNM0A-3LXQNNe9UuYe-N-83" value="id_trabajo" style="shape=partialRectangle;connectable=0;fillColor=#d5e8d4;top=0;left=0;bottom=0;right=0;align=left;spacingLeft=6;fontStyle=5;overflow=hidden;sketch=0;strokeColor=#82b366;strokeWidth=1;" parent="MNM0A-3LXQNNe9UuYe-N-81" vertex="1">
          <mxGeometry x="30" width="250" height="30" as="geometry">
            <mxRectangle width="250" height="30" as="alternateBounds" />
          </mxGeometry>
        </mxCell>
        <mxCell id="MNM0A-3LXQNNe9UuYe-N-84" value="" style="shape=partialRectangle;collapsible=0;dropTarget=0;pointerEvents=0;fillColor=none;top=0;left=0;bottom=0;right=0;points=[[0,0.5],[1,0.5]];portConstraint=eastwest;sketch=0;strokeColor=default;strokeWidth=1;" parent="MNM0A-3LXQNNe9UuYe-N-80" vertex="1">
          <mxGeometry y="60" width="280" height="30" as="geometry" />
        </mxCell>
        <mxCell id="MNM0A-3LXQNNe9UuYe-N-85" value="FK" style="shape=partialRectangle;connectable=0;fillColor=#ffff88;top=0;left=0;bottom=0;right=0;editable=1;overflow=hidden;sketch=0;strokeColor=#36393d;strokeWidth=1;align=left;spacingLeft=6;fontStyle=0;" parent="MNM0A-3LXQNNe9UuYe-N-84" vertex="1">
          <mxGeometry width="30" height="30" as="geometry">
            <mxRectangle width="30" height="30" as="alternateBounds" />
          </mxGeometry>
        </mxCell>
        <mxCell id="MNM0A-3LXQNNe9UuYe-N-86" value="dispositivo_id" style="shape=partialRectangle;connectable=0;fillColor=#ffff88;top=0;left=0;bottom=0;right=0;align=left;spacingLeft=6;overflow=hidden;sketch=0;strokeColor=#36393d;strokeWidth=1;fontStyle=0;" parent="MNM0A-3LXQNNe9UuYe-N-84" vertex="1">
          <mxGeometry x="30" width="250" height="30" as="geometry">
            <mxRectangle width="250" height="30" as="alternateBounds" />
          </mxGeometry>
        </mxCell>
        <mxCell id="MNM0A-3LXQNNe9UuYe-N-87" value="" style="shape=partialRectangle;collapsible=0;dropTarget=0;pointerEvents=0;fillColor=none;top=0;left=0;bottom=0;right=0;points=[[0,0.5],[1,0.5]];portConstraint=eastwest;sketch=0;strokeColor=default;strokeWidth=1;" parent="MNM0A-3LXQNNe9UuYe-N-80" vertex="1">
          <mxGeometry y="90" width="280" height="30" as="geometry" />
        </mxCell>
        <mxCell id="MNM0A-3LXQNNe9UuYe-N-88" value="" style="shape=partialRectangle;connectable=0;fillColor=none;top=0;left=0;bottom=0;right=0;editable=1;overflow=hidden;sketch=0;strokeColor=default;strokeWidth=1;" parent="MNM0A-3LXQNNe9UuYe-N-87" vertex="1">
          <mxGeometry width="30" height="30" as="geometry">
            <mxRectangle width="30" height="30" as="alternateBounds" />
          </mxGeometry>
        </mxCell>
        <mxCell id="MNM0A-3LXQNNe9UuYe-N-89" value="detalle: varchar(500) - no nullable" style="shape=partialRectangle;connectable=0;fillColor=none;top=0;left=0;bottom=0;right=0;align=left;spacingLeft=6;overflow=hidden;sketch=0;strokeColor=default;strokeWidth=1;" parent="MNM0A-3LXQNNe9UuYe-N-87" vertex="1">
          <mxGeometry x="30" width="250" height="30" as="geometry">
            <mxRectangle width="250" height="30" as="alternateBounds" />
          </mxGeometry>
        </mxCell>
        <mxCell id="MNM0A-3LXQNNe9UuYe-N-90" value="" style="shape=partialRectangle;collapsible=0;dropTarget=0;pointerEvents=0;fillColor=none;top=0;left=0;bottom=0;right=0;points=[[0,0.5],[1,0.5]];portConstraint=eastwest;sketch=0;strokeColor=default;strokeWidth=1;" parent="MNM0A-3LXQNNe9UuYe-N-80" vertex="1">
          <mxGeometry y="120" width="280" height="30" as="geometry" />
        </mxCell>
        <mxCell id="MNM0A-3LXQNNe9UuYe-N-91" value="" style="shape=partialRectangle;connectable=0;fillColor=none;top=0;left=0;bottom=0;right=0;editable=1;overflow=hidden;sketch=0;strokeColor=default;strokeWidth=1;" parent="MNM0A-3LXQNNe9UuYe-N-90" vertex="1">
          <mxGeometry width="30" height="30" as="geometry">
            <mxRectangle width="30" height="30" as="alternateBounds" />
          </mxGeometry>
        </mxCell>
        <mxCell id="MNM0A-3LXQNNe9UuYe-N-92" value="fecha_ingreso: date - no nullable" style="shape=partialRectangle;connectable=0;fillColor=none;top=0;left=0;bottom=0;right=0;align=left;spacingLeft=6;overflow=hidden;sketch=0;strokeColor=default;strokeWidth=1;" parent="MNM0A-3LXQNNe9UuYe-N-90" vertex="1">
          <mxGeometry x="30" width="250" height="30" as="geometry">
            <mxRectangle width="250" height="30" as="alternateBounds" />
          </mxGeometry>
        </mxCell>
        <mxCell id="MNM0A-3LXQNNe9UuYe-N-93" value="" style="shape=partialRectangle;collapsible=0;dropTarget=0;pointerEvents=0;fillColor=none;top=0;left=0;bottom=0;right=0;points=[[0,0.5],[1,0.5]];portConstraint=eastwest;sketch=0;strokeColor=default;strokeWidth=1;" parent="MNM0A-3LXQNNe9UuYe-N-80" vertex="1">
          <mxGeometry y="150" width="280" height="30" as="geometry" />
        </mxCell>
        <mxCell id="MNM0A-3LXQNNe9UuYe-N-94" value="" style="shape=partialRectangle;connectable=0;fillColor=none;top=0;left=0;bottom=0;right=0;editable=1;overflow=hidden;sketch=0;strokeColor=default;strokeWidth=1;" parent="MNM0A-3LXQNNe9UuYe-N-93" vertex="1">
          <mxGeometry width="30" height="30" as="geometry">
            <mxRectangle width="30" height="30" as="alternateBounds" />
          </mxGeometry>
        </mxCell>
        <mxCell id="MNM0A-3LXQNNe9UuYe-N-95" value="fecha_salida: date - nullable" style="shape=partialRectangle;connectable=0;fillColor=none;top=0;left=0;bottom=0;right=0;align=left;spacingLeft=6;overflow=hidden;sketch=0;strokeColor=default;strokeWidth=1;" parent="MNM0A-3LXQNNe9UuYe-N-93" vertex="1">
          <mxGeometry x="30" width="250" height="30" as="geometry">
            <mxRectangle width="250" height="30" as="alternateBounds" />
          </mxGeometry>
        </mxCell>
        <mxCell id="MNM0A-3LXQNNe9UuYe-N-114" value="" style="shape=partialRectangle;collapsible=0;dropTarget=0;pointerEvents=0;fillColor=none;top=0;left=0;bottom=0;right=0;points=[[0,0.5],[1,0.5]];portConstraint=eastwest;sketch=0;strokeColor=default;strokeWidth=1;" parent="MNM0A-3LXQNNe9UuYe-N-80" vertex="1">
          <mxGeometry y="180" width="280" height="30" as="geometry" />
        </mxCell>
        <mxCell id="MNM0A-3LXQNNe9UuYe-N-115" value="FK" style="shape=partialRectangle;connectable=0;fillColor=#ffff88;top=0;left=0;bottom=0;right=0;editable=1;overflow=hidden;sketch=0;strokeColor=#36393d;strokeWidth=1;align=left;spacingLeft=6;fontStyle=0;" parent="MNM0A-3LXQNNe9UuYe-N-114" vertex="1">
          <mxGeometry width="30" height="30" as="geometry">
            <mxRectangle width="30" height="30" as="alternateBounds" />
          </mxGeometry>
        </mxCell>
        <mxCell id="MNM0A-3LXQNNe9UuYe-N-116" value="tecnico_id: int no nullable" style="shape=partialRectangle;connectable=0;fillColor=#ffff88;top=0;left=0;bottom=0;right=0;align=left;spacingLeft=6;overflow=hidden;sketch=0;strokeColor=#36393d;strokeWidth=1;fontStyle=0;" parent="MNM0A-3LXQNNe9UuYe-N-114" vertex="1">
          <mxGeometry x="30" width="250" height="30" as="geometry">
            <mxRectangle width="250" height="30" as="alternateBounds" />
          </mxGeometry>
        </mxCell>
        <mxCell id="MNM0A-3LXQNNe9UuYe-N-117" style="edgeStyle=orthogonalEdgeStyle;rounded=0;orthogonalLoop=1;jettySize=auto;html=1;entryX=1;entryY=0.5;entryDx=0;entryDy=0;endArrow=ERmany;endFill=0;" parent="1" source="gngZGeMC9GBTQBjWvx4m-2" target="MNM0A-3LXQNNe9UuYe-N-84" edge="1">
          <mxGeometry relative="1" as="geometry" />
        </mxCell>
        <mxCell id="MNM0A-3LXQNNe9UuYe-N-118" value="personal" style="shape=table;startSize=30;container=1;collapsible=1;childLayout=tableLayout;fixedRows=1;rowLines=0;fontStyle=1;align=center;resizeLast=1;sketch=0;strokeColor=default;strokeWidth=1;fillColor=none;" parent="1" vertex="1">
          <mxGeometry x="-690" y="726" width="350" height="120" as="geometry" />
        </mxCell>
        <mxCell id="MNM0A-3LXQNNe9UuYe-N-119" value="" style="shape=partialRectangle;collapsible=0;dropTarget=0;pointerEvents=0;fillColor=none;top=0;left=0;bottom=1;right=0;points=[[0,0.5],[1,0.5]];portConstraint=eastwest;sketch=0;strokeColor=default;strokeWidth=1;" parent="MNM0A-3LXQNNe9UuYe-N-118" vertex="1">
          <mxGeometry y="30" width="350" height="30" as="geometry" />
        </mxCell>
        <mxCell id="MNM0A-3LXQNNe9UuYe-N-120" value="PK" style="shape=partialRectangle;connectable=0;fillColor=#d5e8d4;top=0;left=0;bottom=0;right=0;fontStyle=1;overflow=hidden;sketch=0;strokeColor=#82b366;strokeWidth=1;" parent="MNM0A-3LXQNNe9UuYe-N-119" vertex="1">
          <mxGeometry width="30" height="30" as="geometry">
            <mxRectangle width="30" height="30" as="alternateBounds" />
          </mxGeometry>
        </mxCell>
        <mxCell id="MNM0A-3LXQNNe9UuYe-N-121" value="id_personal" style="shape=partialRectangle;connectable=0;fillColor=#d5e8d4;top=0;left=0;bottom=0;right=0;align=left;spacingLeft=6;fontStyle=5;overflow=hidden;sketch=0;strokeColor=#82b366;strokeWidth=1;" parent="MNM0A-3LXQNNe9UuYe-N-119" vertex="1">
          <mxGeometry x="30" width="320" height="30" as="geometry">
            <mxRectangle width="320" height="30" as="alternateBounds" />
          </mxGeometry>
        </mxCell>
        <mxCell id="MNM0A-3LXQNNe9UuYe-N-122" value="" style="shape=partialRectangle;collapsible=0;dropTarget=0;pointerEvents=0;fillColor=none;top=0;left=0;bottom=0;right=0;points=[[0,0.5],[1,0.5]];portConstraint=eastwest;sketch=0;strokeColor=default;strokeWidth=1;" parent="MNM0A-3LXQNNe9UuYe-N-118" vertex="1">
          <mxGeometry y="60" width="350" height="30" as="geometry" />
        </mxCell>
        <mxCell id="MNM0A-3LXQNNe9UuYe-N-123" value="" style="shape=partialRectangle;connectable=0;fillColor=none;top=0;left=0;bottom=0;right=0;editable=1;overflow=hidden;sketch=0;strokeColor=default;strokeWidth=1;" parent="MNM0A-3LXQNNe9UuYe-N-122" vertex="1">
          <mxGeometry width="30" height="30" as="geometry">
            <mxRectangle width="30" height="30" as="alternateBounds" />
          </mxGeometry>
        </mxCell>
        <mxCell id="MNM0A-3LXQNNe9UuYe-N-124" value="nombre: varchar(300) - no nullable" style="shape=partialRectangle;connectable=0;fillColor=none;top=0;left=0;bottom=0;right=0;align=left;spacingLeft=6;overflow=hidden;sketch=0;strokeColor=default;strokeWidth=1;" parent="MNM0A-3LXQNNe9UuYe-N-122" vertex="1">
          <mxGeometry x="30" width="320" height="30" as="geometry">
            <mxRectangle width="320" height="30" as="alternateBounds" />
          </mxGeometry>
        </mxCell>
        <mxCell id="MNM0A-3LXQNNe9UuYe-N-125" value="" style="shape=partialRectangle;collapsible=0;dropTarget=0;pointerEvents=0;fillColor=none;top=0;left=0;bottom=0;right=0;points=[[0,0.5],[1,0.5]];portConstraint=eastwest;sketch=0;strokeColor=default;strokeWidth=1;" parent="MNM0A-3LXQNNe9UuYe-N-118" vertex="1">
          <mxGeometry y="90" width="350" height="30" as="geometry" />
        </mxCell>
        <mxCell id="MNM0A-3LXQNNe9UuYe-N-126" value="" style="shape=partialRectangle;connectable=0;fillColor=none;top=0;left=0;bottom=0;right=0;editable=1;overflow=hidden;sketch=0;strokeColor=default;strokeWidth=1;" parent="MNM0A-3LXQNNe9UuYe-N-125" vertex="1">
          <mxGeometry width="30" height="30" as="geometry">
            <mxRectangle width="30" height="30" as="alternateBounds" />
          </mxGeometry>
        </mxCell>
        <mxCell id="MNM0A-3LXQNNe9UuYe-N-127" value="" style="shape=partialRectangle;connectable=0;fillColor=none;top=0;left=0;bottom=0;right=0;align=left;spacingLeft=6;overflow=hidden;sketch=0;strokeColor=default;strokeWidth=1;" parent="MNM0A-3LXQNNe9UuYe-N-125" vertex="1">
          <mxGeometry x="30" width="320" height="30" as="geometry">
            <mxRectangle width="320" height="30" as="alternateBounds" />
          </mxGeometry>
        </mxCell>
        <mxCell id="MNM0A-3LXQNNe9UuYe-N-131" style="edgeStyle=orthogonalEdgeStyle;rounded=0;orthogonalLoop=1;jettySize=auto;html=1;endArrow=ERmany;endFill=0;" parent="1" source="MNM0A-3LXQNNe9UuYe-N-119" target="MNM0A-3LXQNNe9UuYe-N-114" edge="1">
          <mxGeometry relative="1" as="geometry" />
        </mxCell>
        <mxCell id="edtG9JuQd5Cp_M4onZQ7-9" value="unidad" style="shape=table;startSize=30;container=1;collapsible=1;childLayout=tableLayout;fixedRows=1;rowLines=0;fontStyle=1;align=center;resizeLast=1;sketch=0;strokeColor=default;strokeWidth=1;fillColor=none;" vertex="1" parent="1">
          <mxGeometry x="-130" y="450" width="290" height="120" as="geometry" />
        </mxCell>
        <mxCell id="edtG9JuQd5Cp_M4onZQ7-10" value="" style="shape=partialRectangle;collapsible=0;dropTarget=0;pointerEvents=0;fillColor=none;top=0;left=0;bottom=1;right=0;points=[[0,0.5],[1,0.5]];portConstraint=eastwest;sketch=0;strokeColor=default;strokeWidth=1;" vertex="1" parent="edtG9JuQd5Cp_M4onZQ7-9">
          <mxGeometry y="30" width="290" height="30" as="geometry" />
        </mxCell>
        <mxCell id="edtG9JuQd5Cp_M4onZQ7-11" value="PK" style="shape=partialRectangle;connectable=0;fillColor=#d5e8d4;top=0;left=0;bottom=0;right=0;fontStyle=5;overflow=hidden;sketch=0;strokeColor=#82b366;strokeWidth=1;align=left;spacingLeft=6;" vertex="1" parent="edtG9JuQd5Cp_M4onZQ7-10">
          <mxGeometry width="30" height="30" as="geometry">
            <mxRectangle width="30" height="30" as="alternateBounds" />
          </mxGeometry>
        </mxCell>
        <mxCell id="edtG9JuQd5Cp_M4onZQ7-12" value="id_unidad: autoincrement Primary Key" style="shape=partialRectangle;connectable=0;fillColor=#d5e8d4;top=0;left=0;bottom=0;right=0;align=left;spacingLeft=6;fontStyle=5;overflow=hidden;sketch=0;strokeColor=#82b366;strokeWidth=1;" vertex="1" parent="edtG9JuQd5Cp_M4onZQ7-10">
          <mxGeometry x="30" width="260" height="30" as="geometry">
            <mxRectangle width="260" height="30" as="alternateBounds" />
          </mxGeometry>
        </mxCell>
        <mxCell id="edtG9JuQd5Cp_M4onZQ7-16" value="" style="shape=partialRectangle;collapsible=0;dropTarget=0;pointerEvents=0;fillColor=none;top=0;left=0;bottom=0;right=0;points=[[0,0.5],[1,0.5]];portConstraint=eastwest;sketch=0;strokeColor=default;strokeWidth=1;" vertex="1" parent="edtG9JuQd5Cp_M4onZQ7-9">
          <mxGeometry y="60" width="290" height="30" as="geometry" />
        </mxCell>
        <mxCell id="edtG9JuQd5Cp_M4onZQ7-17" value="" style="shape=partialRectangle;connectable=0;fillColor=none;top=0;left=0;bottom=0;right=0;editable=1;overflow=hidden;sketch=0;strokeColor=default;strokeWidth=1;" vertex="1" parent="edtG9JuQd5Cp_M4onZQ7-16">
          <mxGeometry width="30" height="30" as="geometry">
            <mxRectangle width="30" height="30" as="alternateBounds" />
          </mxGeometry>
        </mxCell>
        <mxCell id="edtG9JuQd5Cp_M4onZQ7-18" value="unidad: varchar(300) - no null - unique" style="shape=partialRectangle;connectable=0;fillColor=none;top=0;left=0;bottom=0;right=0;align=left;spacingLeft=6;overflow=hidden;sketch=0;strokeColor=default;strokeWidth=1;" vertex="1" parent="edtG9JuQd5Cp_M4onZQ7-16">
          <mxGeometry x="30" width="260" height="30" as="geometry">
            <mxRectangle width="260" height="30" as="alternateBounds" />
          </mxGeometry>
        </mxCell>
        <mxCell id="edtG9JuQd5Cp_M4onZQ7-25" value="" style="shape=partialRectangle;collapsible=0;dropTarget=0;pointerEvents=0;fillColor=none;top=0;left=0;bottom=0;right=0;points=[[0,0.5],[1,0.5]];portConstraint=eastwest;sketch=0;strokeColor=default;strokeWidth=1;" vertex="1" parent="edtG9JuQd5Cp_M4onZQ7-9">
          <mxGeometry y="90" width="290" height="30" as="geometry" />
        </mxCell>
        <mxCell id="edtG9JuQd5Cp_M4onZQ7-26" value="" style="shape=partialRectangle;connectable=0;fillColor=none;top=0;left=0;bottom=0;right=0;editable=1;overflow=hidden;sketch=0;strokeColor=#36393d;strokeWidth=1;align=left;spacingLeft=6;fontStyle=0;" vertex="1" parent="edtG9JuQd5Cp_M4onZQ7-25">
          <mxGeometry width="30" height="30" as="geometry">
            <mxRectangle width="30" height="30" as="alternateBounds" />
          </mxGeometry>
        </mxCell>
        <mxCell id="edtG9JuQd5Cp_M4onZQ7-27" value="" style="shape=partialRectangle;connectable=0;fillColor=none;top=0;left=0;bottom=0;right=0;align=left;spacingLeft=6;overflow=hidden;sketch=0;strokeColor=#36393d;strokeWidth=1;fontStyle=0;" vertex="1" parent="edtG9JuQd5Cp_M4onZQ7-25">
          <mxGeometry x="30" width="260" height="30" as="geometry">
            <mxRectangle width="260" height="30" as="alternateBounds" />
          </mxGeometry>
        </mxCell>
        <mxCell id="edtG9JuQd5Cp_M4onZQ7-28" style="edgeStyle=orthogonalEdgeStyle;rounded=0;orthogonalLoop=1;jettySize=auto;html=1;endArrow=ERmany;endFill=0;" edge="1" parent="1" source="edtG9JuQd5Cp_M4onZQ7-10">
          <mxGeometry relative="1" as="geometry">
            <mxPoint x="-360" y="390" as="targetPoint" />
            <Array as="points">
              <mxPoint x="-320" y="495" />
              <mxPoint x="-320" y="390" />
            </Array>
          </mxGeometry>
        </mxCell>
        <mxCell id="edtG9JuQd5Cp_M4onZQ7-29" value="departamento" style="shape=table;startSize=30;container=1;collapsible=1;childLayout=tableLayout;fixedRows=1;rowLines=0;fontStyle=1;align=center;resizeLast=1;sketch=0;strokeColor=default;strokeWidth=1;fillColor=none;" vertex="1" parent="1">
          <mxGeometry x="-130" y="600" width="290" height="120" as="geometry" />
        </mxCell>
        <mxCell id="edtG9JuQd5Cp_M4onZQ7-30" value="" style="shape=partialRectangle;collapsible=0;dropTarget=0;pointerEvents=0;fillColor=none;top=0;left=0;bottom=1;right=0;points=[[0,0.5],[1,0.5]];portConstraint=eastwest;sketch=0;strokeColor=default;strokeWidth=1;" vertex="1" parent="edtG9JuQd5Cp_M4onZQ7-29">
          <mxGeometry y="30" width="290" height="30" as="geometry" />
        </mxCell>
        <mxCell id="edtG9JuQd5Cp_M4onZQ7-31" value="PK" style="shape=partialRectangle;connectable=0;fillColor=#d5e8d4;top=0;left=0;bottom=0;right=0;fontStyle=5;overflow=hidden;sketch=0;strokeColor=#82b366;strokeWidth=1;align=left;spacingLeft=6;" vertex="1" parent="edtG9JuQd5Cp_M4onZQ7-30">
          <mxGeometry width="30" height="30" as="geometry">
            <mxRectangle width="30" height="30" as="alternateBounds" />
          </mxGeometry>
        </mxCell>
        <mxCell id="edtG9JuQd5Cp_M4onZQ7-32" value="id_departamento: autoincrement Pk" style="shape=partialRectangle;connectable=0;fillColor=#d5e8d4;top=0;left=0;bottom=0;right=0;align=left;spacingLeft=6;fontStyle=5;overflow=hidden;sketch=0;strokeColor=#82b366;strokeWidth=1;" vertex="1" parent="edtG9JuQd5Cp_M4onZQ7-30">
          <mxGeometry x="30" width="260" height="30" as="geometry">
            <mxRectangle width="260" height="30" as="alternateBounds" />
          </mxGeometry>
        </mxCell>
        <mxCell id="edtG9JuQd5Cp_M4onZQ7-33" value="" style="shape=partialRectangle;collapsible=0;dropTarget=0;pointerEvents=0;fillColor=none;top=0;left=0;bottom=0;right=0;points=[[0,0.5],[1,0.5]];portConstraint=eastwest;sketch=0;strokeColor=default;strokeWidth=1;" vertex="1" parent="edtG9JuQd5Cp_M4onZQ7-29">
          <mxGeometry y="60" width="290" height="30" as="geometry" />
        </mxCell>
        <mxCell id="edtG9JuQd5Cp_M4onZQ7-34" value="FK" style="shape=partialRectangle;connectable=0;fillColor=#ffff88;top=0;left=0;bottom=0;right=0;editable=1;overflow=hidden;sketch=0;strokeColor=#36393d;strokeWidth=1;align=left;spacingLeft=6;fontStyle=0;" vertex="1" parent="edtG9JuQd5Cp_M4onZQ7-33">
          <mxGeometry width="30" height="30" as="geometry">
            <mxRectangle width="30" height="30" as="alternateBounds" />
          </mxGeometry>
        </mxCell>
        <mxCell id="edtG9JuQd5Cp_M4onZQ7-35" value="unidad_id: int no nullable" style="shape=partialRectangle;connectable=0;fillColor=#ffff88;top=0;left=0;bottom=0;right=0;align=left;spacingLeft=6;overflow=hidden;sketch=0;strokeColor=#36393d;strokeWidth=1;fontStyle=0;" vertex="1" parent="edtG9JuQd5Cp_M4onZQ7-33">
          <mxGeometry x="30" width="260" height="30" as="geometry">
            <mxRectangle width="260" height="30" as="alternateBounds" />
          </mxGeometry>
        </mxCell>
        <mxCell id="edtG9JuQd5Cp_M4onZQ7-36" value="" style="shape=partialRectangle;collapsible=0;dropTarget=0;pointerEvents=0;fillColor=none;top=0;left=0;bottom=0;right=0;points=[[0,0.5],[1,0.5]];portConstraint=eastwest;sketch=0;strokeColor=default;strokeWidth=1;" vertex="1" parent="edtG9JuQd5Cp_M4onZQ7-29">
          <mxGeometry y="90" width="290" height="30" as="geometry" />
        </mxCell>
        <mxCell id="edtG9JuQd5Cp_M4onZQ7-37" value="" style="shape=partialRectangle;connectable=0;fillColor=none;top=0;left=0;bottom=0;right=0;editable=1;overflow=hidden;sketch=0;strokeColor=default;strokeWidth=1;" vertex="1" parent="edtG9JuQd5Cp_M4onZQ7-36">
          <mxGeometry width="30" height="30" as="geometry">
            <mxRectangle width="30" height="30" as="alternateBounds" />
          </mxGeometry>
        </mxCell>
        <mxCell id="edtG9JuQd5Cp_M4onZQ7-38" value="departamento: varchar(300) - nullable" style="shape=partialRectangle;connectable=0;fillColor=none;top=0;left=0;bottom=0;right=0;align=left;spacingLeft=6;overflow=hidden;sketch=0;strokeColor=default;strokeWidth=1;" vertex="1" parent="edtG9JuQd5Cp_M4onZQ7-36">
          <mxGeometry x="30" width="260" height="30" as="geometry">
            <mxRectangle width="260" height="30" as="alternateBounds" />
          </mxGeometry>
        </mxCell>
        <mxCell id="edtG9JuQd5Cp_M4onZQ7-48" style="edgeStyle=orthogonalEdgeStyle;rounded=0;orthogonalLoop=1;jettySize=auto;html=1;endArrow=ERmany;endFill=0;" edge="1" parent="1" source="edtG9JuQd5Cp_M4onZQ7-30">
          <mxGeometry relative="1" as="geometry">
            <mxPoint x="-360" y="440" as="targetPoint" />
            <Array as="points">
              <mxPoint x="-200" y="645" />
              <mxPoint x="-200" y="440" />
            </Array>
          </mxGeometry>
        </mxCell>
        <mxCell id="edtG9JuQd5Cp_M4onZQ7-49" value="division" style="shape=table;startSize=30;container=1;collapsible=1;childLayout=tableLayout;fixedRows=1;rowLines=0;fontStyle=1;align=center;resizeLast=1;sketch=0;strokeColor=default;strokeWidth=1;fillColor=none;" vertex="1" parent="1">
          <mxGeometry x="-130" y="750" width="290" height="120" as="geometry" />
        </mxCell>
        <mxCell id="edtG9JuQd5Cp_M4onZQ7-50" value="" style="shape=partialRectangle;collapsible=0;dropTarget=0;pointerEvents=0;fillColor=none;top=0;left=0;bottom=1;right=0;points=[[0,0.5],[1,0.5]];portConstraint=eastwest;sketch=0;strokeColor=default;strokeWidth=1;" vertex="1" parent="edtG9JuQd5Cp_M4onZQ7-49">
          <mxGeometry y="30" width="290" height="30" as="geometry" />
        </mxCell>
        <mxCell id="edtG9JuQd5Cp_M4onZQ7-51" value="PK" style="shape=partialRectangle;connectable=0;fillColor=#d5e8d4;top=0;left=0;bottom=0;right=0;fontStyle=5;overflow=hidden;sketch=0;strokeColor=#82b366;strokeWidth=1;align=left;spacingLeft=6;" vertex="1" parent="edtG9JuQd5Cp_M4onZQ7-50">
          <mxGeometry width="30" height="30" as="geometry">
            <mxRectangle width="30" height="30" as="alternateBounds" />
          </mxGeometry>
        </mxCell>
        <mxCell id="edtG9JuQd5Cp_M4onZQ7-52" value="id_division: autoincrement Pk" style="shape=partialRectangle;connectable=0;fillColor=#d5e8d4;top=0;left=0;bottom=0;right=0;align=left;spacingLeft=6;fontStyle=5;overflow=hidden;sketch=0;strokeColor=#82b366;strokeWidth=1;" vertex="1" parent="edtG9JuQd5Cp_M4onZQ7-50">
          <mxGeometry x="30" width="260" height="30" as="geometry">
            <mxRectangle width="260" height="30" as="alternateBounds" />
          </mxGeometry>
        </mxCell>
        <mxCell id="edtG9JuQd5Cp_M4onZQ7-53" value="" style="shape=partialRectangle;collapsible=0;dropTarget=0;pointerEvents=0;fillColor=none;top=0;left=0;bottom=0;right=0;points=[[0,0.5],[1,0.5]];portConstraint=eastwest;sketch=0;strokeColor=default;strokeWidth=1;" vertex="1" parent="edtG9JuQd5Cp_M4onZQ7-49">
          <mxGeometry y="60" width="290" height="30" as="geometry" />
        </mxCell>
        <mxCell id="edtG9JuQd5Cp_M4onZQ7-54" value="FK" style="shape=partialRectangle;connectable=0;fillColor=#ffff88;top=0;left=0;bottom=0;right=0;editable=1;overflow=hidden;sketch=0;strokeColor=#36393d;strokeWidth=1;align=left;spacingLeft=6;fontStyle=0;" vertex="1" parent="edtG9JuQd5Cp_M4onZQ7-53">
          <mxGeometry width="30" height="30" as="geometry">
            <mxRectangle width="30" height="30" as="alternateBounds" />
          </mxGeometry>
        </mxCell>
        <mxCell id="edtG9JuQd5Cp_M4onZQ7-55" value="departamento_id: int no nullable" style="shape=partialRectangle;connectable=0;fillColor=#ffff88;top=0;left=0;bottom=0;right=0;align=left;spacingLeft=6;overflow=hidden;sketch=0;strokeColor=#36393d;strokeWidth=1;fontStyle=0;" vertex="1" parent="edtG9JuQd5Cp_M4onZQ7-53">
          <mxGeometry x="30" width="260" height="30" as="geometry">
            <mxRectangle width="260" height="30" as="alternateBounds" />
          </mxGeometry>
        </mxCell>
        <mxCell id="edtG9JuQd5Cp_M4onZQ7-56" value="" style="shape=partialRectangle;collapsible=0;dropTarget=0;pointerEvents=0;fillColor=none;top=0;left=0;bottom=0;right=0;points=[[0,0.5],[1,0.5]];portConstraint=eastwest;sketch=0;strokeColor=default;strokeWidth=1;" vertex="1" parent="edtG9JuQd5Cp_M4onZQ7-49">
          <mxGeometry y="90" width="290" height="30" as="geometry" />
        </mxCell>
        <mxCell id="edtG9JuQd5Cp_M4onZQ7-57" value="" style="shape=partialRectangle;connectable=0;fillColor=none;top=0;left=0;bottom=0;right=0;editable=1;overflow=hidden;sketch=0;strokeColor=default;strokeWidth=1;" vertex="1" parent="edtG9JuQd5Cp_M4onZQ7-56">
          <mxGeometry width="30" height="30" as="geometry">
            <mxRectangle width="30" height="30" as="alternateBounds" />
          </mxGeometry>
        </mxCell>
        <mxCell id="edtG9JuQd5Cp_M4onZQ7-58" value="division: varchar(300) - nullable" style="shape=partialRectangle;connectable=0;fillColor=none;top=0;left=0;bottom=0;right=0;align=left;spacingLeft=6;overflow=hidden;sketch=0;strokeColor=default;strokeWidth=1;" vertex="1" parent="edtG9JuQd5Cp_M4onZQ7-56">
          <mxGeometry x="30" width="260" height="30" as="geometry">
            <mxRectangle width="260" height="30" as="alternateBounds" />
          </mxGeometry>
        </mxCell>
        <mxCell id="edtG9JuQd5Cp_M4onZQ7-59" style="edgeStyle=orthogonalEdgeStyle;rounded=0;orthogonalLoop=1;jettySize=auto;html=1;endArrow=ERmany;endFill=0;" edge="1" parent="1" source="edtG9JuQd5Cp_M4onZQ7-50">
          <mxGeometry relative="1" as="geometry">
            <mxPoint x="-360" y="480" as="targetPoint" />
            <Array as="points">
              <mxPoint x="-260" y="795" />
              <mxPoint x="-260" y="480" />
            </Array>
          </mxGeometry>
        </mxCell>
      </root>
    </mxGraphModel>
  </diagram>
</mxfile>
